#!OML:ASF F:\VICON\USERDATA\INSTALL\rory3\rory3.ASF
:FULLY-SPECIFIED
:DEGREES
37
root 0.3595988786871543 17.960160917533884 22.557784270406522 -1.7365581384216422 -3.4721767933522063 -7.5247438378518465
lfemur -18.18045703759148 1.5870337450471454 -9.996951416526281
ltibia 56.69462034534203
lfoot -9.094008922395703 1.5121389652905446
ltoes -9.766094939407221
rfemur 0.9562153522672947 6.178162303085232 32.98870837793532
rtibia 23.744357581748083
rfoot -20.557895452998327 -10.580709039007406
rtoes 0.507286098222147
lowerback 9.386302397128455 0.9050779864720748 6.61522532447332
upperback 0.07374201072099389 2.23057019250537 2.462976995535319
thorax -5.661834448245311 1.021857538376984 -0.7046326234238941
lowerneck -16.787749110544652 -2.874975288998141 -1.1910385838598052
upperneck 21.62802507809284 -3.6737106861507587 0.22214959394105177
head 9.634123239792665 -1.8318524701744818 -0.10938399215468474
lclavicle 3.6664730394009664e-16 -8.401885486110926e-16
lhumerus -31.343703576127304 4.0375605188121275 80.96266827655913
lradius 19.498185510659425
lwrist 8.666674019900288
lhand -28.29465772471676 18.11834771996745
lfingers nan
lthumb -1.6459684216148989 48.09580909435377
rclavicle 4.321923070203134e-16 -7.92196708178055e-16
rhumerus -24.534456382521334 -18.032338351399805 -76.06206958378725
rradius 29.0126392636883
rwrist 2.836591466584518
rhand -18.26297769046223 20.868293177312705
rfingers nan
rthumb 8.490587854145254 -8.027231288884346
38
root 0.4043614921407835 17.988035548883445 22.66962169932691 -1.4128908702435214 -3.3037078497604804 -9.018542053187439
lfemur -21.3839256303659 1.5605808620051398 -9.185928073152313
ltibia 52.91918267746438
lfoot -9.611234638619267 2.049193894733354
ltoes -9.797977765741633
rfemur 2.03696464407807 6.888068915637557 34.41602995521613
rtibia 24.787933333233983
rfoot -17.1059037062219 -8.861223710144918
rtoes 0.01907228056799104
lowerback 9.447003164946649 1.2673395763875037 7.7470237415229075
upperback 0.07311715813517564 2.9658434692649758 2.333392742827786
thorax -5.579458938015629 1.3213585681918723 -1.4928678336704437
lowerneck -16.652291143616377 -3.0022577311247844 -1.1603337883606968
upperneck 21.386252379790523 -3.881761061097746 0.35280443084309576
head 9.570567913563295 -1.9042358163383672 -0.12234232240744898
lclavicle 3.878600183086811e-16 -8.296058685382385e-16
lhumerus -33.290886586184214 5.239434639736044 81.25305115986836
lradius 20.206732158547865
lwrist 9.058510329042216
lhand -28.264508295157345 17.94978370827944
lfingers nan
lthumb -1.5921975995562958 47.983911647436365
rclavicle 4.348695333268791e-16 -7.937074055057599e-16
rhumerus -23.31669935612958 -16.118854355597723 -75.61504908142436
rradius 30.107103463528944
rwrist 2.4765687794399405
rhand -18.253606740966003 20.99234595398735
rfingers nan
rthumb 8.421474916605284 -7.901704673096677
39
root 0.4465373756105512 18.000688241894625 24.100119678260775 -1.7820516091531675 -3.1172774911699097 -8.913914556952319
lfemur -23.39765128565915 1.1529289462997772 -10.195595842327823
ltibia 48.079486888671525
lfoot -8.94667032730849 3.1050962850449535
ltoes -10.492366995665309
rfemur 2.5021472765149557 6.900953389593104 34.38980853541008
rtibia 26.77168198198138
rfoot -12.129652652255038 -7.101605469640483
rtoes 0.5861607642087066
lowerback 9.570480249736297 1.447079063239491 7.783590665998409
upperback 0.1132479952564537 3.219345194975242 2.2116671699351365
thorax -5.359775772507575 1.4266221485549972 -1.8930090869480902
lowerneck -16.471832538352206 -3.1037540170931353 -1.184655558913903
upperneck 21.382124282456015 -4.055569449740906 0.4425818901861288
head 9.606054897162315 -1.9598406697395758 -0.1482719310237755
lclavicle 4.007809475639121e-16 -8.230882252652277e-16
lhumerus -34.9577230048707 6.0601830497431335 81.44717175627027
lradius 21.158543024234728
lwrist 8.947841241079413
lhand -28.348015121647897 18.870161531529185
lfingers nan
lthumb -1.7750573391031748 48.66852664487616
rclavicle 4.3233216826186433e-16 -7.975938911799389e-16
rhumerus -22.64900828244399 -14.676749155083982 -75.11925313560772
rradius 31.22060920684385
rwrist 2.7144074185506017
rhand -18.1713868483674 21.426140022947294
rfingers nan
rthumb 8.373151427846002 -7.646006475828511
40
root 0.4656808332301882 17.987102250584737 25.13335582766276 -2.299790348115698 -3.0504106202043983 -8.607647395930293
lfemur -24.34661564983626 0.6793372624607252 -11.149377833879454
ltibia 43.01490451921077
lfoot -9.605920502833213 2.6008639116049688
ltoes -10.524308120234899
rfemur 2.9343682519376415 6.639836885786755 34.16434696779072
rtibia 28.855541927578273
rfoot -6.79301710045024 -6.422850672793146
rtoes 2.240913320869697
lowerback 9.673325642579025 1.6045881039190317 7.58588200483115
upperback 0.1342335214966774 3.362361072292309 2.0418153982794482
thorax -5.1112540556161985 1.4950741691302876 -2.1345366129626915
lowerneck -16.293337691661907 -3.1872558433061235 -1.286153825467234
upperneck 21.492200467290957 -4.19540928486587 0.5997374604843085
head 9.649363187877634 -2.0169230357568413 -0.13830122252319582
lclavicle 4.177265889061809e-16 -8.122742349270017e-16
lhumerus -36.162791126178206 6.696604161508625 81.49429209242179
lradius 22.242573135821843
lwrist 8.802883259909994
lhand -28.482402546006995 19.286434333889954
lfingers nan
lthumb -1.9067392233882234 49.12501413127831
rclavicle 4.3302242051755684e-16 -7.98248576897481e-16
rhumerus -22.403263678523487 -13.623053452751929 -74.80442784769201
rradius 32.236868497621096
rwrist 3.175218878615703
rhand -18.0688882382902 21.754354669849643
rfingers nan
rthumb 8.35160040051779 -7.216791771159963
